<?xml version="1.0" encoding="UTF-8"?>
<!-- Uploaded to: SVG Find, www.svgrepo.com, Generator: SVG Find Mixer Tools -->
<svg fill="#000000" width="800px" height="800px" version="1.1" viewBox="144 144 512 512" xmlns="http://www.w3.org/2000/svg">
 <path d="m561.16 306.19h39.582v58.387c0 4.3438 3.5273 7.8711 7.8711 7.8711s7.8711-3.5273 7.8711-7.8711v-66.258c0-4.3438-3.5273-7.8711-7.8711-7.8711h-48.215c-0.94531-2.2969-2.25-4.4648-3.9062-6.3906l-50.469-59.008v-0.36328c0-29.238-23.734-52.973-52.973-52.973-24.121 0-44.492 16.152-50.883 38.211l-166.45 88.246c-4.0625-1-8.3047-1.5273-12.676-1.5273-29.238 0-52.973 23.734-52.973 52.973 0 16.734 7.7773 31.668 19.91 41.375l110.01 132.02c-10.367 2.4961-18.066 11.832-18.066 22.961v27.223h-59.039c-6.2656 0-12.273 2.4883-16.695 6.918-4.4336 4.4258-6.918 10.43-6.918 16.695v7.8711c0 6.2656 2.4883 12.273 6.918 16.695 4.4258 4.4336 10.43 6.918 16.695 6.918h244.03c6.2656 0 12.273-2.4883 16.695-6.918 4.4336-4.4258 6.918-10.43 6.918-16.695v-7.8711c0-6.2656-2.4883-12.273-6.918-16.695-4.4258-4.4336-10.43-6.918-16.695-6.918h-59.039v-27.223c0-13.043-10.57-23.617-23.617-23.617h-6.2891c9.4531-9.5742 15.305-22.727 15.305-37.234 0-14.73-6.0312-28.07-15.75-37.676-0.085937-0.085938-4.4336-4.0078-6.7227-5.6289l-90.094-74.625 149.39-94.746c6.4531 3.1094 13.633 4.9531 21.215 5.1953l49.359 53.906c2.6992 2.9531 6 5.0703 9.5391 6.3125v54.277c0 4.3438 3.5273 7.8711 7.8711 7.8711h67.652c4.3438 0 7.8711-3.5273 7.8711-7.8711s-3.5273-7.8711-7.8711-7.8711h-59.781v-46.398c2.3945-0.84375 4.6914-2.0938 6.7852-3.7461l20.461-16.184c3.8164-3.0312 6.582-7.1328 7.957-11.738zm-86.371 290.61v7.8711c0 2.0859-0.82812 4.0938-2.3047 5.5664-1.4727 1.4805-3.4805 2.3047-5.5664 2.3047h-244.03c-2.0859 0-4.0938-0.82812-5.5664-2.3047-1.4805-1.4727-2.3047-3.4805-2.3047-5.5664v-7.8711c0-2.0859 0.82812-4.0938 2.3047-5.5664 1.4727-1.4805 3.4805-2.3047 5.5664-2.3047h244.03c2.0859 0 4.0938 0.82812 5.5664 2.3047 1.4805 1.4727 2.3047 3.4805 2.3047 5.5664zm-82.656-23.617h-94.465v-27.223c0-4.3516 3.5273-7.8711 7.8711-7.8711h78.719c4.3438 0 7.8711 3.5195 7.8711 7.8711v27.223zm-30.883-118.84 5.3438 4.4258c6.7539 6.7383 10.934 16.059 10.934 26.34 0 20.555-16.68 37.234-37.227 37.234s-37.227-16.68-37.227-37.234c0-20.547 16.68-37.227 37.227-37.227 7.7617 0 14.98 2.3867 20.949 6.4648zm-21.617 6.4883c-13.027 0-23.617 10.578-23.617 23.617 0 13.035 10.586 23.617 23.617 23.617 13.035 0 23.617-10.578 23.617-23.617 0-13.035-10.578-23.617-23.617-23.617zm0 15.742c4.3438 0 7.8711 3.5273 7.8711 7.8711s-3.5273 7.8711-7.8711 7.8711c-4.3359 0-7.8711-3.5273-7.8711-7.8711s3.5352-7.8711 7.8711-7.8711zm-71.422-99.297c-9.3203 15.168-26.07 25.301-45.168 25.301-1 0-1.9922-0.023437-2.9766-0.078125l67.297 80.75c0.91406-26.527 21.379-48.129 47.43-50.828zm-45.168-64.898c20.547 0 37.227 16.68 37.227 37.227s-16.68 37.227-37.227 37.227c-20.547 0-37.227-16.68-37.227-37.227s16.68-37.227 37.227-37.227zm0.78125 14.391c-13.035 0-23.617 10.586-23.617 23.617 0 13.035 10.578 23.617 23.617 23.617 13.035 0 23.617-10.578 23.617-23.617 0-13.027-10.578-23.617-23.617-23.617zm0 15.742c4.3438 0 7.8711 3.5273 7.8711 7.8711s-3.5273 7.8711-7.8711 7.8711-7.8711-3.5273-7.8711-7.8711 3.5273-7.8711 7.8711-7.8711zm176.41-113.75-146.51 77.672c13.484 9.6055 22.285 25.371 22.285 43.172 0 0.64453-0.007812 1.2812-0.03125 1.9297l140.14-88.891c-8.9805-8.7383-14.879-20.633-15.895-33.883zm101.88 15.926c-5.7773 14.121-17.477 25.207-32 30.148l42.172 46.059c2.7852 3.0469 7.4531 3.418 10.691 0.85937l20.461-16.184c1.6758-1.332 2.7383-3.2812 2.9453-5.4062 0.21094-2.1328-0.45703-4.2578-1.8516-5.8789l-42.414-49.594zm-49.059-57.238c20.547 0 37.227 16.68 37.227 37.227 0 20.547-16.68 37.227-37.227 37.227s-37.234-16.68-37.234-37.227c0-20.547 16.688-37.227 37.234-37.227zm0 13.609c-13.035 0-23.617 10.578-23.617 23.617 0 13.035 10.578 23.617 23.617 23.617 13.027 0 23.617-10.578 23.617-23.617 0-13.035-10.586-23.617-23.617-23.617zm0 15.742c4.3438 0 7.8711 3.5273 7.8711 7.8711s-3.5273 7.8711-7.8711 7.8711-7.8711-3.5273-7.8711-7.8711 3.5273-7.8711 7.8711-7.8711z" fill-rule="evenodd"/>
</svg>